<svg width="36" height="36" viewBox="0 0 36 36" fill="none" xmlns="http://www.w3.org/2000/svg">
<path fill-rule="evenodd" clip-rule="evenodd" d="M17.7188 1.47656C20.9807 1.47656 23.625 4.12088 23.625 7.38281V17.7188C23.625 20.9807 20.9807 23.625 17.7188 23.625C14.4568 23.625 11.8125 20.9807 11.8125 17.7188V7.38281C11.8125 4.12088 14.4568 1.47656 17.7188 1.47656ZM19.1953 29.4399V31.0078H23.625V33.9609H11.8125V31.0078H16.2422V29.4399C10.4152 28.7132 5.90625 23.7426 5.90625 17.7188V14.7656H8.85938V17.7188C8.85938 22.6116 12.8259 26.5781 17.7188 26.5781C22.6116 26.5781 26.5781 22.6116 26.5781 17.7188V14.7656H29.5312V17.7188C29.5312 23.7426 25.0223 28.7132 19.1953 29.4399ZM14.7656 7.38281C14.7656 5.75185 16.0878 4.42969 17.7188 4.42969C19.3497 4.42969 20.6719 5.75185 20.6719 7.38281V17.7188C20.6719 19.3497 19.3497 20.6719 17.7188 20.6719C16.0878 20.6719 14.7656 19.3497 14.7656 17.7188V7.38281Z" fill="white"/>
</svg>
