<svg width="31" height="30" viewBox="0 0 31 30" fill="none" xmlns="http://www.w3.org/2000/svg">
<path fill-rule="evenodd" clip-rule="evenodd" d="M15.5 1.25C18.2614 1.25 20.5 3.48858 20.5 6.25V15C20.5 17.7614 18.2614 20 15.5 20C12.7386 20 10.5 17.7614 10.5 15V6.25C10.5 3.48858 12.7386 1.25 15.5 1.25ZM16.75 24.9226V26.25H20.5V28.75H10.5V26.25H14.25V24.9226C9.31711 24.3075 5.5 20.0995 5.5 15V12.5H8V15C8 19.1421 11.3579 22.5 15.5 22.5C19.6421 22.5 23 19.1421 23 15V12.5H25.5V15C25.5 20.0995 21.6829 24.3075 16.75 24.9226ZM13 6.25C13 4.86929 14.1193 3.75 15.5 3.75C16.8807 3.75 18 4.86929 18 6.25V15C18 16.3807 16.8807 17.5 15.5 17.5C14.1193 17.5 13 16.3807 13 15V6.25Z" fill="#404040"/>
</svg>
