<svg width="24" height="23" viewBox="0 0 24 23" fill="none" xmlns="http://www.w3.org/2000/svg">
<path fill-rule="evenodd" clip-rule="evenodd" d="M9.12533 1.9165H7.20866C6.15011 1.9165 5.29199 2.77462 5.29199 3.83317V19.1665C5.29199 20.225 6.15011 21.0832 7.20866 21.0832H9.12533C10.1839 21.0832 11.042 20.225 11.042 19.1665V3.83317C11.042 2.77462 10.1839 1.9165 9.12533 1.9165ZM16.792 1.9165H14.8753C13.8168 1.9165 12.9587 2.77462 12.9587 3.83317V19.1665C12.9587 20.225 13.8168 21.0832 14.8753 21.0832H16.792C17.8505 21.0832 18.7087 20.225 18.7087 19.1665V3.83317C18.7087 2.77462 17.8505 1.9165 16.792 1.9165ZM7.20866 3.83317V19.1665H9.12533V3.83317H7.20866ZM14.8753 19.1665V3.83317H16.792V19.1665H14.8753Z" fill="#404040"/>
</svg>
