<svg width="22" height="22" viewBox="0 0 22 22" fill="none" xmlns="http://www.w3.org/2000/svg">
<path fill-rule="evenodd" clip-rule="evenodd" d="M13.3708 15.5651C11.9961 16.5127 10.3297 17.0674 8.53372 17.0674C3.82068 17.0674 0 13.2468 0 8.53372C0 3.82068 3.82068 0 8.53372 0C13.2468 0 17.0674 3.82068 17.0674 8.53372C17.0674 10.3297 16.5127 11.9961 15.5651 13.3708L21.2678 19.0735L19.0735 21.2678L13.3708 15.5651ZM8.5333 13.9643C11.5325 13.9643 13.9639 11.5329 13.9639 8.53372C13.9639 5.53451 11.5325 3.10317 8.5333 3.10317C5.53409 3.10317 3.10275 5.53451 3.10275 8.53372C3.10275 11.5329 5.53409 13.9643 8.5333 13.9643Z" fill="white"/>
</svg>
